<svg width="39" height="39" viewBox="0 0 39 39" fill="none"
  xmlns="http://www.w3.org/2000/svg">
  <path fill-rule="evenodd" clip-rule="evenodd" d="M18.8182 10L18.8182 6.57143H20.1818L20.1818 10L18.8182 10Z" fill="#0F1C1F"/>
  <path d="M19.5 2L22 6.57143H17L19.5 2Z" fill="#0F1C1F"/>
  <path fill-rule="evenodd" clip-rule="evenodd" d="M20.1818 29L20.1818 32.4286L18.8182 32.4286L18.8182 29L20.1818 29Z" fill="#0F1C1F"/>
  <path d="M19.5 37L17 32.4286L22 32.4286L19.5 37Z" fill="#0F1C1F"/>
  <path fill-rule="evenodd" clip-rule="evenodd" d="M29 18.8182L32.4286 18.8182L32.4286 20.1818L29 20.1818L29 18.8182Z" fill="#0F1C1F"/>
  <path d="M37 19.5L32.4286 22L32.4286 17L37 19.5Z" fill="#0F1C1F"/>
  <path fill-rule="evenodd" clip-rule="evenodd" d="M10 20.1818L6.57143 20.1818L6.57143 18.8182L10 18.8182L10 20.1818Z" fill="#0F1C1F"/>
  <path d="M2 19.5L6.57143 17L6.57143 22L2 19.5Z" fill="#0F1C1F"/>
  <path d="M10 11.9C10 10.8507 10.8507 10 11.9 10H27.1C28.1493 10 29 10.8507 29 11.9V27.1C29 28.1493 28.1493 29 27.1 29H11.9C10.8507 29 10 28.1493 10 27.1V11.9Z" fill="#F67C18"/>
  <path fill-rule="evenodd" clip-rule="evenodd" d="M27.1 11.14H11.9C11.4803 11.14 11.14 11.4803 11.14 11.9V27.1C11.14 27.5197 11.4803 27.86 11.9 27.86H27.1C27.5197 27.86 27.86 27.5197 27.86 27.1V11.9C27.86 11.4803 27.5197 11.14 27.1 11.14ZM11.9 10C10.8507 10 10 10.8507 10 11.9V27.1C10 28.1493 10.8507 29 11.9 29H27.1C28.1493 29 29 28.1493 29 27.1V11.9C29 10.8507 28.1493 10 27.1 10H11.9Z" fill="#0F1C1F"/>
  <path fill-rule="evenodd" clip-rule="evenodd" d="M17.8621 16.1149V10.6551H19.0021V16.1149H28.7816V17.2549H26.8641V22.2298H28.7816V23.3698H21.8411V28.3448H20.7011V23.3698H10.2184V22.2298H15.023V17.2549H10.2184V16.1149H17.8621ZM16.163 17.2549V22.2298H25.7241V17.2549H16.163Z" fill="#0F1C1F"/>
</svg>
